<mxfile host="app.diagrams.net" modified="2023-12-09T21:53:34.482Z" agent="Mozilla/5.0 (Macintosh; Intel Mac OS X 10_15_7) AppleWebKit/605.1.15 (KHTML, like Gecko) Version/16.5.1 Safari/605.1.15" version="22.1.7" etag="CYX8cFTxWOaV8ZZv5_PM" type="github">
  <diagram name="Страница — 1" id="chGyN3L0zho7r_GQk93y">
    <mxGraphModel>
      <root>
        <mxCell id="0" />
        <mxCell id="1" parent="0" />
      </root>
    </mxGraphModel>
  </diagram>
</mxfile>
